<svg width="8" height="9" viewBox="0 0 8 9" fill="none" xmlns="http://www.w3.org/2000/svg">
<g clip-path="url(#clip0_7973_425)">
<path fill-rule="evenodd" clip-rule="evenodd" d="M5.6299 8.6345C5.01795 8.81808 4.40601 8.94047 3.73287 8.94047C3.24331 8.94047 2.75375 8.87927 2.32539 8.75689C2.2642 8.45091 2.32539 8.02255 2.32539 7.71658C1.59106 7.65538 1.04031 7.77777 0.734335 7.22702C0.611945 6.98224 0.550751 6.73747 0.428362 6.49269C0.244778 6.06433 0 6.12552 0 5.88074C0.428362 5.69716 0.856724 6.3703 1.04031 6.55388C1.22389 6.73747 1.28509 6.79866 1.65225 6.79866C2.93734 6.79866 2.2642 6.67627 2.99853 6.00313L3.18212 5.81955C0.67314 5.63596 -0.244778 3.49416 0.917918 1.96429C1.1627 1.65832 0.979113 1.71951 0.917918 1.04637C0.917918 0.679206 0.917918 0.312039 1.1015 0.128455C1.71345 0.0060662 2.38659 0.556817 2.63137 0.801595C3.48809 0.618012 3.91645 0.434428 5.01795 0.679206C5.20154 0.740401 5.38512 0.86279 5.50751 0.679206C5.87468 0.312039 6.30304 0.0672607 6.91498 0.0672607C7.15976 0.618012 7.15976 0.923984 6.97618 1.59712C6.91498 1.8419 6.97618 1.8419 7.09857 1.96429C8.07768 3.24938 7.64932 5.45238 4.83437 5.75835C5.20154 6.06433 5.44631 6.18672 5.6299 6.92105C5.69109 7.22702 5.69109 8.14494 5.69109 8.6345H5.6299Z" fill="#FEFEFE"/>
</g>
<defs>
<clipPath id="clip0_7973_425">
<rect width="7.52693" height="8.94652" fill="white"/>
</clipPath>
</defs>
</svg>
