<svg width="7" height="16" viewBox="0 0 7 16" fill="none" xmlns="http://www.w3.org/2000/svg">
<g clip-path="url(#clip0_7979_438)">
<path fill-rule="evenodd" clip-rule="evenodd" d="M0.0513854 14.9084C0.00435589 15.0024 0.00435589 15.849 0.0513854 15.943C0.145445 16.0371 -0.0426737 15.943 0.098415 15.9901C0.192474 16.0371 0.286533 15.9901 0.380592 15.9901C1.41524 15.9901 6.82364 16.0371 6.9177 15.943C6.9177 15.943 7.05879 14.9084 6.82364 14.8143C6.77661 14.8143 6.77661 14.8143 6.72958 14.8143C6.68255 14.8143 6.58849 14.8143 6.54146 14.8143C6.1182 14.8143 5.27167 14.7673 4.98949 14.4381C4.8484 14.297 4.89543 13.9678 4.89543 13.7326V7.43068C4.89543 6.39603 4.8484 5.31435 4.89543 4.23267C4.33107 4.23267 1.83851 4.93811 0.944947 5.0792C0.803858 5.12623 0.61574 5.12623 0.474651 5.17326C0.239504 5.26732 0.286533 5.45543 0.521681 5.50246C0.803858 5.59652 1.13307 5.69058 1.41524 5.83167C2.3088 6.16088 2.21474 5.92573 2.21474 7.38365V13.9678C2.21474 14.1559 2.16772 14.25 2.02663 14.391C1.65039 14.6732 0.803858 14.7673 0.286533 14.7673L0.098415 14.8143C0.0513854 14.8143 0.0513854 14.8143 0.0513854 14.8613V14.9084Z" fill="#2B2A29"/>
<path fill-rule="evenodd" clip-rule="evenodd" d="M2.87315 3.27548e-05C1.18008 0.235181 0.709788 2.25745 1.97959 3.2921C2.59097 3.85646 3.76671 3.85646 4.42512 3.24507C4.89542 2.82181 5.13057 2.25745 5.03651 1.55201C4.89542 0.564387 4.00186 -0.141056 2.87315 3.27548e-05V3.27548e-05Z" fill="#2B2A29"/>
</g>
<defs>
<clipPath id="clip0_7979_438">
<rect width="6.96907" height="15.99" fill="white"/>
</clipPath>
</defs>
</svg>
