<svg width="8" height="8" viewBox="0 0 8 8" fill="none" xmlns="http://www.w3.org/2000/svg">
<g clip-path="url(#clip0_7972_419)">
<path fill-rule="evenodd" clip-rule="evenodd" d="M0.00943079 0.767773C0.00943079 0.712932 0.00943079 0.658091 0.00943079 0.658091C0.00943079 0.60325 0.00943079 0.60325 0.0642717 0.548409C0.0642717 0.383887 0.393317 0.0548409 0.55784 0.0548409C0.612681 0 0.722363 0 0.777204 0H0.996568C1.05141 0 1.10625 0 1.16109 0.0548409C1.21593 0.0548409 1.32561 0.109682 1.4353 0.164523C1.49014 0.219364 1.54498 0.274205 1.59982 0.329046C1.65466 0.383887 1.81918 0.60325 1.81918 0.767773V0.877455C1.81918 0.932296 1.81918 0.987137 1.81918 0.987137C1.81918 1.37102 1.54498 1.64523 1.21593 1.80975C1.10625 1.86459 0.832045 1.91943 0.722363 1.86459C0.55784 1.86459 0.338476 1.70007 0.228795 1.64523C0.119113 1.53555 0.00943079 1.37102 -0.0454102 1.2065V1.15166C-0.0454102 1.04198 -0.0454102 0.932296 -0.0454102 0.877455L0.00943079 0.767773Z" fill="#FEFEFE"/>
<path fill-rule="evenodd" clip-rule="evenodd" d="M4.45153 4.27765C4.45153 4.33249 4.39669 4.38733 4.39669 4.44217C4.28701 4.82606 4.34185 5.48415 4.34185 5.92288C4.34185 6.52613 4.34185 7.07453 4.34185 7.67779H4.12249H3.02567H2.75146V2.57758H4.28701V3.29051C4.34185 3.29051 4.28701 3.29051 4.34185 3.23567C4.39669 3.12599 4.39669 3.07115 4.6709 2.85178C4.72574 2.79694 5.05478 2.57758 5.21931 2.57758C5.27415 2.52274 5.38383 2.52274 5.43867 2.52274H5.54835C5.60319 2.4679 5.76772 2.4679 5.8774 2.4679H6.09676C6.1516 2.4679 6.20644 2.4679 6.20644 2.4679C6.26129 2.4679 6.31613 2.4679 6.37097 2.4679L6.53549 2.52274C6.8097 2.57758 7.02906 2.7421 7.19358 2.90662C7.24842 2.96146 7.3581 3.07115 7.41295 3.18083C7.46779 3.23567 7.57747 3.45503 7.57747 3.50987C7.63231 3.56471 7.63231 3.61956 7.63231 3.6744C7.68715 3.78408 7.74199 4.16796 7.74199 4.27765C7.79683 4.33249 7.79683 6.58097 7.79683 6.85517V7.67779H6.20644C6.1516 7.51326 6.20644 5.26478 6.20644 4.82606C6.20644 4.60669 6.1516 4.44217 6.09676 4.27765L6.04192 4.16796C5.93224 3.9486 5.82256 3.9486 5.71288 3.89376C5.43867 3.83892 5.27415 3.83892 4.99994 3.9486C4.83542 4.00344 4.72574 4.11312 4.6709 4.22281C4.6709 4.27765 4.6709 4.27765 4.61606 4.27765L4.56122 4.33249L4.45153 4.27765Z" fill="#FEFEFE"/>
<path fill-rule="evenodd" clip-rule="evenodd" d="M0.11915 2.63239C0.11915 2.5227 0.11915 2.52271 0.228832 2.52271C0.612719 2.52271 1.38049 2.52271 1.70954 2.52271V5.92284C1.70954 6.41641 1.70954 7.18419 1.70954 7.62291H0.393355C0.0643093 7.62291 0.11915 7.62291 0.11915 7.51323V2.63239V2.63239Z" fill="#FEFEFE"/>
</g>
<defs>
<clipPath id="clip0_7972_419">
<rect width="7.69663" height="7.67773" fill="white"/>
</clipPath>
</defs>
</svg>
