<svg width="12" height="19" viewBox="0 0 12 19" fill="none" xmlns="http://www.w3.org/2000/svg">
<g clip-path="url(#clip0_7979_435)">
<path fill-rule="evenodd" clip-rule="evenodd" d="M5.7851 18.5156C5.97172 18.4223 8.1489 13.9747 8.30441 13.6948C9.05087 12.264 10.1706 10.118 10.8237 8.78054C11.2903 7.81636 11.6013 7.16321 11.6324 5.91911C11.6635 3.92854 10.6682 2.03129 9.11308 1.0049C8.70874 0.75608 8.39772 0.538362 7.90008 0.351747C7.21582 0.102926 6.59377 0.0407208 6.43826 -0.0214844H5.25636C4.72761 0.196234 3.82564 0.102926 2.58154 0.973798C-0.0310802 2.80885 -0.653132 5.7947 0.808689 8.71834L4.541 15.9963C4.97643 16.8361 5.34966 17.6448 5.8162 18.4845L5.7851 18.5156ZM5.38077 2.34231C3.57682 2.56003 2.08389 4.17736 2.33272 6.23013C2.55043 7.97188 4.16777 9.4959 6.22054 9.24708C7.99338 8.99826 9.48631 7.41203 9.23749 5.35926C9.01977 3.58641 7.40243 2.06239 5.34966 2.34231H5.38077Z" fill="#2B2A29"/>
</g>
<defs>
<clipPath id="clip0_7979_435">
<rect width="11.6013" height="18.5254" fill="white"/>
</clipPath>
</defs>
</svg>
