<svg width="12" height="8" viewBox="0 0 12 8" fill="none" xmlns="http://www.w3.org/2000/svg">
<g clip-path="url(#clip0_7973_428)">
<path fill-rule="evenodd" clip-rule="evenodd" d="M1.34275 1.33432C1.38318 1.33432 1.34275 1.33432 1.38318 1.37475L2.67709 2.46649C2.71753 2.50693 2.71753 2.50693 2.75796 2.54736L4.09231 3.67954C4.13275 3.71997 4.13275 3.71997 4.17318 3.76041C4.37535 3.92215 4.37535 3.96258 4.53709 4.08388C4.57753 4.12432 4.57753 4.12432 4.6584 4.16475C4.69883 4.20519 4.73927 4.20519 4.7797 4.28606L5.38622 4.81171C5.66927 5.01388 5.95231 4.64997 6.23535 4.4478C6.39709 4.28606 6.80144 4.00302 6.96318 3.84128L7.93362 3.03258C7.97405 2.99215 8.13579 2.87084 8.17622 2.83041C8.33796 2.66867 8.54014 2.54736 8.62101 2.46649L8.94449 2.18345C8.98492 2.14302 8.98492 2.14302 9.02535 2.10258L9.91492 1.37475C9.95535 1.33432 10.0362 1.29388 10.0767 1.25345L11.128 0.404319C11.0875 0.202145 10.7641 0.121276 10.6427 0.080841C10.4001 0.121276 9.59144 0.080841 9.3084 0.080841H1.26188C1.01927 0.080841 0.331876 0.0404063 0.210571 0.363885C0.251006 0.404319 1.34275 1.29388 1.38318 1.37475L1.34275 1.33432Z" fill="#FEFEFE"/>
<path fill-rule="evenodd" clip-rule="evenodd" d="M6.92279 4.56912C6.84192 4.64999 6.63974 4.81173 6.55887 4.8926L6.03322 5.33738C5.95235 5.41825 5.83105 5.53956 5.70974 5.57999C5.548 5.62043 5.4267 5.57999 5.3054 5.49912C5.26496 5.45869 5.22453 5.41825 5.18409 5.37782C5.14366 5.33738 5.10322 5.33738 5.06279 5.25651C4.94148 5.21608 4.94148 5.17564 4.86061 5.09477L4.3754 4.69043C4.33496 4.64999 4.33496 4.64999 4.29453 4.60956L3.84974 4.93303C3.84974 4.97347 3.80931 4.97347 3.76887 5.0139L2.31322 6.14608C2.19192 6.26738 1.86844 6.50999 1.7067 6.6313C1.54496 6.7526 1.18105 7.07608 1.05974 7.11651C1.05974 7.15695 1.01931 7.15695 0.978874 7.19738C0.938439 7.23782 0.898004 7.23782 0.857569 7.27825C0.817135 7.31869 0.736265 7.39956 0.655396 7.43999V7.48043C0.817135 7.43999 5.14366 7.48043 5.66931 7.48043C7.32714 7.48043 9.0254 7.48043 10.6832 7.48043C10.6832 7.43999 10.6428 7.43999 10.6024 7.39956L9.22757 6.30782C9.10627 6.22695 9.06583 6.22695 9.06583 6.14608C8.98496 6.10564 8.94453 6.06521 8.86366 5.98434L7.48887 4.8926C7.36757 4.81173 7.08453 4.56912 7.00366 4.52869C6.96322 4.56912 6.96322 4.56912 6.96322 4.56912C6.92279 4.56912 6.92279 4.56912 6.92279 4.60956V4.56912Z" fill="#FEFEFE"/>
<path fill-rule="evenodd" clip-rule="evenodd" d="M9.10622 2.74956L8.82318 2.99216C8.58057 3.19434 7.69101 3.9626 7.5697 4.00303C7.61014 4.0839 7.85275 4.24564 7.93362 4.32651C8.05492 4.44782 8.17622 4.52869 8.29753 4.60956L8.86362 5.05434C8.94449 5.09477 8.98492 5.13521 9.02535 5.21608L9.63188 5.70129C9.79362 5.8226 10.6023 6.42912 10.6427 6.50999C10.7236 6.55043 10.8449 6.67173 10.9258 6.71216C11.0067 6.79303 11.128 6.91434 11.2088 6.91434C11.2088 6.79303 11.2493 6.67173 11.2493 6.55043V3.88173C11.2493 2.87086 11.2897 1.85999 11.2493 0.849121L10.8449 1.1726C10.8045 1.21303 10.8045 1.21303 10.7641 1.21303L9.02535 2.62825L9.10622 2.74956Z" fill="#FEFEFE"/>
<path fill-rule="evenodd" clip-rule="evenodd" d="M0.00842285 6.79298L0.0488576 6.87385C0.0892924 6.95471 0.0488576 6.91428 0.0892924 6.95471L0.776684 6.38863C0.817119 6.34819 0.938423 6.26732 1.01929 6.22689C1.10016 6.14602 1.22147 6.06515 1.30234 5.98428L2.1919 5.29689C2.1919 5.25645 2.83886 4.77124 2.91973 4.69037L3.68799 4.08384L3.60712 4.00298C3.48581 3.92211 3.20277 3.6795 3.1219 3.59863C3.04103 3.55819 2.87929 3.43689 2.83886 3.35602C2.75799 3.31558 2.55581 3.11341 2.47494 3.07298L0.776684 1.61732C0.736249 1.57689 0.695814 1.57689 0.695814 1.53645C0.614945 1.49602 0.57451 1.45558 0.534075 1.37471L0.00842285 0.929932C0.00842285 1.21298 0.0488576 6.63124 0.00842285 6.75254V6.79298Z" fill="#FEFEFE"/>
</g>
<defs>
<clipPath id="clip0_7973_428">
<rect width="11.3386" height="7.44" fill="white"/>
</clipPath>
</defs>
</svg>
