<svg width="12" height="12" viewBox="0 0 12 12" fill="none" xmlns="http://www.w3.org/2000/svg">
<path fill-rule="evenodd" clip-rule="evenodd" d="M2.79406 4.21148C2.79406 4.00901 2.83455 3.84703 2.87504 3.68506C2.95603 3.48259 3.03702 3.23963 3.19899 3.11815C3.23949 3.03716 3.36097 2.95618 3.40146 2.87519C3.44195 2.83469 3.44196 2.83469 3.48245 2.7942C3.7659 2.59173 4.13035 2.38926 4.49479 2.30828L4.69726 2.26778C5.14269 2.1868 5.62861 2.1463 6.07404 2.22729C6.15503 2.22729 6.23601 2.22729 6.317 2.26778C6.51947 2.30828 6.76243 2.34877 6.9649 2.38926C7.20786 2.47025 7.24835 2.47025 7.41033 2.55124C7.65329 2.63223 7.81526 2.75371 7.97724 2.91568C8.05822 2.99667 8.13921 3.07766 8.2202 3.19914C8.30119 3.32062 8.34168 3.4421 8.34168 3.60407C8.34168 3.92802 8.2202 4.13049 8.01773 4.29246C7.97724 4.33296 7.93674 4.33296 7.89625 4.37345C7.5723 4.53543 7.20786 4.41394 6.9649 4.17098L6.72194 3.92802C6.72194 3.92802 6.68144 3.92802 6.68144 3.88753C6.55996 3.80654 6.43848 3.72555 6.317 3.68506C6.07404 3.60407 5.91206 3.56358 5.6691 3.56358C4.37331 3.56358 4.49479 4.41394 4.98071 4.57592C5.42614 4.77839 6.11453 4.85937 6.60045 4.98085L7.24835 5.18332C7.49131 5.26431 7.89625 5.46678 8.09872 5.62875L8.30119 5.83122C8.8276 6.39813 8.78711 7.28899 8.42267 7.93689C8.34168 8.05837 8.26069 8.17985 8.13921 8.26084C7.12687 9.31367 5.14269 9.23268 3.88738 8.66577C3.64442 8.58478 3.52294 8.4633 3.32047 8.34182C3.23949 8.30133 3.07751 8.13935 3.03702 8.05837C2.99653 8.01787 2.95603 7.93689 2.91554 7.89639C2.42962 6.92455 3.48245 6.27665 4.13035 6.92455C4.25183 7.04603 4.4138 7.2485 4.53528 7.32948C4.65676 7.41047 4.77824 7.53195 4.89972 7.61294C5.26417 7.77491 5.58812 7.8559 5.99305 7.81541C6.88391 7.69392 7.00539 7.04603 6.64095 6.76257C6.43848 6.6006 5.95256 6.51961 5.7096 6.43862C5.26417 6.31714 4.77824 6.23616 4.37331 6.11468C4.13035 6.03369 3.96837 5.99319 3.7659 5.87171C3.68492 5.83122 3.56344 5.75023 3.48245 5.70974C3.40146 5.62875 3.19899 5.50727 3.1585 5.42628C3.11801 5.38579 3.11801 5.3453 3.07751 5.3048C3.03702 5.22382 2.95603 5.14283 2.91554 5.02135C2.91554 4.98085 2.91554 4.98085 2.87504 4.94036C2.87504 4.94036 2.87504 4.94036 2.87504 4.89987L2.83455 4.6974C2.79406 4.49493 2.79406 4.41394 2.79406 4.21148V4.21148ZM0 2.83469C0 3.4421 0.202468 4.09 0.526417 4.49493C0.56691 4.53543 0.607404 4.53543 0.56691 4.61641C0.242962 6.19566 0.647897 7.69393 1.57925 8.90873C1.57925 8.94923 1.57925 8.94923 1.61974 8.94923C1.78172 9.19219 2.14616 9.51614 2.38912 9.7186C2.42962 9.7591 2.42962 9.7591 2.47011 9.79959C2.63208 9.92107 2.87504 10.083 3.03702 10.164C4.04936 10.7309 5.0617 10.9334 6.23601 10.8119C6.39799 10.8119 6.60045 10.7309 6.76243 10.7309C6.80292 10.7714 6.84342 10.7714 6.88391 10.8119C7.81526 11.4598 9.07056 11.4598 10.0424 10.8524L10.0829 10.8119C10.1234 10.8119 10.1234 10.7714 10.1234 10.7714C10.3259 10.6095 10.6093 10.3665 10.7713 10.164C10.8928 9.96157 10.9333 9.96157 11.0547 9.7186L11.0952 9.59712C11.1357 9.47564 11.1762 9.35416 11.2167 9.19219C11.3382 8.74676 11.3382 8.4633 11.2572 8.05837L11.2167 7.89639C11.1357 7.45096 10.9333 7.12701 10.7308 6.80307C10.6903 6.76257 10.6903 6.80307 10.7308 6.64109C10.9333 5.58826 10.8118 4.45444 10.3664 3.48259C10.2044 3.11815 9.96142 2.67272 9.67797 2.38926L9.4755 2.1463C9.35402 2.02482 9.11106 1.78186 8.98958 1.66038C8.74662 1.41742 8.09872 1.05298 7.81526 0.931496C6.9244 0.52656 5.83108 0.364585 4.81874 0.52656C4.4138 0.607547 4.65676 0.607547 4.21133 0.364585C3.07751 -0.283312 1.70073 -0.0403504 0.809872 0.810015L0.56691 1.09347C0.202468 1.5389 0 2.1868 0 2.7942L0 2.83469Z" fill="#FEFEFE"/>
</svg>
