<svg width="12" height="10" viewBox="0 0 12 10" fill="none" xmlns="http://www.w3.org/2000/svg">
<path fill-rule="evenodd" clip-rule="evenodd" d="M4.05784 8.76837C4.05784 8.60293 3.4788 6.20405 3.43744 5.99725C3.23064 5.12869 3.18928 5.29413 3.80968 4.92189C4.14056 4.71509 4.5128 4.46693 4.88504 4.26013L8.8556 1.77853C8.93832 1.73717 9.02104 1.65445 9.14512 1.65445C9.39328 1.77853 8.93832 2.06805 8.8556 2.15077L7.73888 3.14341C7.65616 3.18477 7.6148 3.26749 7.53208 3.30885L4.47144 5.99725C4.306 6.12133 4.34736 6.32813 4.34736 6.61765C4.306 6.98989 4.22328 8.64429 4.18192 8.76837C4.47144 8.80973 4.59552 8.64429 4.7196 8.52021C4.84368 8.35477 4.96776 8.23069 5.1332 8.10661C5.38136 7.85845 5.71224 7.56893 5.91904 7.27941C6.04312 7.32077 6.1672 7.44485 6.29128 7.52757L8.48336 9.14062C8.60744 9.22334 8.73152 9.34742 8.93832 9.30606C9.39328 9.2647 9.43464 8.85109 9.476 8.60293L11.0063 1.24085C11.089 0.951331 11.2545 0.45501 11.089 0.20685C10.8409 -0.12403 10.5514 -0.0413099 10.1791 0.12413L6.53944 1.53037C4.7196 2.27485 2.89976 2.93661 1.07992 3.68109C0.91448 3.76381 0.29408 3.97061 0.21136 4.05333C0.0872799 4.13605 0.00455981 4.34285 0.12864 4.50829C0.21136 4.67373 0.33544 4.67373 0.54224 4.75645L2.73432 5.41821C3.02384 5.50093 2.89976 5.41821 3.10656 5.99725L3.85104 8.39613C3.8924 8.60293 3.93376 8.72701 4.14056 8.76837H4.05784Z" fill="#FEFEFE"/>
</svg>
